<svg xmlns="http://www.w3.org/2000/svg" xmlns:xlink="http://www.w3.org/1999/xlink" width="585" zoomAndPan="magnify" viewBox="0 0 438.75 165.000002" height="220" preserveAspectRatio="xMidYMid meet" version="1.0"><defs><g/><clipPath id="c7b3159e71"><path d="M 54 103 L 171.675781 103 L 171.675781 145 L 54 145 Z M 54 103 " clip-rule="nonzero"/></clipPath></defs><path fill="#3f5965" d="M 116.5625 155.433594 C 118.671875 154.808594 120.722656 154.089844 122.722656 153.285156 C 88.140625 160.128906 53.402344 139.632812 43.164062 105.164062 C 32.929688 70.695312 50.855469 34.5625 83.566406 21.421875 C 81.449219 21.839844 79.335938 22.355469 77.230469 22.980469 C 40.652344 33.839844 19.808594 72.300781 30.667969 108.875 C 41.53125 145.453125 79.988281 166.296875 116.5625 155.433594 " fill-opacity="1" fill-rule="nonzero"/><path fill="#289db9" d="M 30.964844 137.902344 C 32.796875 139.339844 34.679688 140.671875 36.601562 141.90625 C 9.476562 116.214844 5.882812 73.613281 29.394531 43.625 C 52.910156 13.636719 95.136719 6.96875 126.558594 27.179688 C 124.898438 25.609375 123.160156 24.097656 121.324219 22.660156 C 89.503906 -2.289062 43.476562 3.28125 18.523438 35.101562 C -6.425781 66.921875 -0.859375 112.949219 30.964844 137.902344 " fill-opacity="1" fill-rule="nonzero"/><g clip-path="url(#c7b3159e71)"><path fill="#289db9" d="M 99.054688 134.554688 C 80.183594 129.484375 64.660156 118.167969 54.105469 103.433594 C 62.425781 121.808594 78.601562 136.453125 99.601562 142.097656 C 127.035156 149.472656 155.042969 139.433594 171.894531 118.75 C 152.296875 134.902344 125.445312 141.648438 99.054688 134.554688 " fill-opacity="1" fill-rule="nonzero"/></g><g fill="#3f5965" fill-opacity="1"><g transform="translate(47.333795, 102.63624)"><g><path d="M 47.796875 -19.234375 C 47.347656 -15.242188 45.988281 -11.710938 43.71875 -8.640625 C 41.445312 -5.566406 38.488281 -3.207031 34.84375 -1.5625 C 31.207031 0.0820312 27.28125 0.867188 23.0625 0.796875 C 19.269531 0.710938 15.960938 -0.164062 13.140625 -1.84375 C 10.316406 -3.519531 8.09375 -5.945312 6.46875 -9.125 C 4.84375 -12.300781 3.925781 -15.957031 3.71875 -20.09375 C 3.53125 -23.34375 3.863281 -27.378906 4.71875 -32.203125 C 5.582031 -37.035156 7.113281 -41.320312 9.3125 -45.0625 C 11.519531 -48.8125 14.140625 -51.78125 17.171875 -53.96875 C 21.441406 -57.03125 26.320312 -58.507812 31.8125 -58.40625 C 37.769531 -58.289062 42.492188 -56.445312 45.984375 -52.875 C 49.484375 -49.300781 51.40625 -44.335938 51.75 -37.984375 L 40.203125 -38.015625 C 40.203125 -41.660156 39.472656 -44.328125 38.015625 -46.015625 C 36.566406 -47.703125 34.3125 -48.597656 31.25 -48.703125 C 27.300781 -48.835938 24.050781 -47.425781 21.5 -44.46875 C 18.957031 -41.519531 17.25 -37.207031 16.375 -31.53125 C 15.53125 -26.019531 15.160156 -21.894531 15.265625 -19.15625 C 15.398438 -15.664062 16.179688 -13.097656 17.609375 -11.453125 C 19.035156 -9.804688 21.023438 -8.941406 23.578125 -8.859375 C 27.117188 -8.734375 29.945312 -9.570312 32.0625 -11.375 C 34.1875 -13.175781 35.59375 -15.769531 36.28125 -19.15625 Z M 47.796875 -19.234375 "/></g></g></g><g fill="#3f5965" fill-opacity="1"><g transform="translate(95.353744, 102.63624)"><g><path d="M 47 -7.28125 C 44.945312 -4.664062 41.9375 -2.648438 37.96875 -1.234375 C 34 0.171875 29.519531 0.832031 24.53125 0.75 C 20.601562 0.726562 17.144531 -0.128906 14.15625 -1.828125 C 11.175781 -3.535156 8.828125 -5.984375 7.109375 -9.171875 C 5.398438 -12.367188 4.425781 -16.007812 4.1875 -20.09375 C 3.925781 -23.894531 4.328125 -28.359375 5.390625 -33.484375 C 6.460938 -38.617188 8.296875 -43.117188 10.890625 -46.984375 C 13.492188 -50.847656 16.613281 -53.734375 20.25 -55.640625 C 23.894531 -57.554688 27.929688 -58.476562 32.359375 -58.40625 C 38.378906 -58.289062 43.085938 -56.59375 46.484375 -53.3125 C 49.890625 -50.03125 51.832031 -45.328125 52.3125 -39.203125 L 41.15625 -39.25 C 40.863281 -42.46875 40.003906 -44.84375 38.578125 -46.375 C 37.148438 -47.90625 35.023438 -48.722656 32.203125 -48.828125 C 27.328125 -48.984375 23.484375 -46.835938 20.671875 -42.390625 C 17.859375 -37.953125 16.253906 -31.507812 15.859375 -23.0625 C 15.597656 -18.550781 16.289062 -15.054688 17.9375 -12.578125 C 19.59375 -10.097656 22.109375 -8.832031 25.484375 -8.78125 C 29.410156 -8.675781 32.757812 -9.613281 35.53125 -11.59375 L 37.46875 -21.53125 L 26.9375 -21.53125 L 28.484375 -30.265625 L 50.484375 -30.265625 Z M 47 -7.28125 "/></g></g></g><g fill="#3f5965" fill-opacity="1"><g transform="translate(145.470599, 102.63624)"><g><path d="M 15.984375 -20.296875 L 12.421875 0 L 0.828125 0 L 10.84375 -57.609375 L 31.015625 -57.5625 C 37.242188 -57.5625 42.140625 -55.832031 45.703125 -52.375 C 49.265625 -48.925781 50.820312 -44.421875 50.375 -38.859375 C 49.945312 -33.210938 47.585938 -28.703125 43.296875 -25.328125 C 39.015625 -21.953125 33.550781 -20.265625 26.90625 -20.265625 Z M 17.609375 -29.90625 L 27.265625 -29.828125 C 30.378906 -29.828125 32.960938 -30.628906 35.015625 -32.234375 C 37.078125 -33.847656 38.304688 -36.023438 38.703125 -38.765625 C 39.097656 -41.515625 38.65625 -43.707031 37.375 -45.34375 C 36.09375 -46.976562 34.195312 -47.847656 31.6875 -47.953125 L 20.765625 -48 Z M 17.609375 -29.90625 "/></g></g></g><g fill="#3f5965" fill-opacity="1"><g transform="translate(192.738823, 102.63624)"><g><path d="M 34.703125 -11.875 L 14.59375 -11.875 L 8.671875 0 L -4.109375 0 L 26.671875 -57.609375 L 37.390625 -57.609375 L 48.34375 0 L 36.515625 0 Z M 19.34375 -21.484375 L 33.234375 -21.484375 L 29.984375 -42.921875 Z M 19.34375 -21.484375 "/></g></g></g><g fill="#289db9" fill-opacity="1"><g transform="translate(246.063312, 101.062303)"><g><path d="M 47.8125 -19.234375 C 47.351562 -15.242188 45.988281 -11.710938 43.71875 -8.640625 C 41.457031 -5.566406 38.503906 -3.207031 34.859375 -1.5625 C 31.222656 0.0820312 27.296875 0.867188 23.078125 0.796875 C 19.273438 0.710938 15.960938 -0.164062 13.140625 -1.84375 C 10.316406 -3.519531 8.09375 -5.945312 6.46875 -9.125 C 4.84375 -12.300781 3.925781 -15.960938 3.71875 -20.109375 C 3.53125 -23.347656 3.863281 -27.378906 4.71875 -32.203125 C 5.582031 -37.035156 7.113281 -41.320312 9.3125 -45.0625 C 11.519531 -48.8125 14.140625 -51.785156 17.171875 -53.984375 C 21.441406 -57.035156 26.320312 -58.507812 31.8125 -58.40625 C 37.78125 -58.300781 42.507812 -56.460938 46 -52.890625 C 49.5 -49.316406 51.421875 -44.347656 51.765625 -37.984375 L 40.203125 -38.03125 C 40.203125 -41.664062 39.476562 -44.328125 38.03125 -46.015625 C 36.582031 -47.710938 34.328125 -48.613281 31.265625 -48.71875 C 27.304688 -48.84375 24.050781 -47.425781 21.5 -44.46875 C 18.957031 -41.519531 17.253906 -37.210938 16.390625 -31.546875 C 15.535156 -26.023438 15.164062 -21.894531 15.28125 -19.15625 C 15.40625 -15.675781 16.179688 -13.109375 17.609375 -11.453125 C 19.035156 -9.804688 21.023438 -8.941406 23.578125 -8.859375 C 27.117188 -8.734375 29.953125 -9.570312 32.078125 -11.375 C 34.203125 -13.1875 35.601562 -15.78125 36.28125 -19.15625 Z M 47.8125 -19.234375 "/></g></g></g><g fill="#289db9" fill-opacity="1"><g transform="translate(294.083995, 101.062303)"><g><path d="M 34.703125 -11.875 L 14.609375 -11.875 L 8.671875 0 L -4.109375 0 L 26.671875 -57.625 L 37.390625 -57.625 L 48.359375 0 L 36.53125 0 Z M 19.34375 -21.484375 L 33.234375 -21.484375 L 30 -42.9375 Z M 19.34375 -21.484375 "/></g></g></g><g fill="#289db9" fill-opacity="1"><g transform="translate(343.568587, 101.062303)"><g><path d="M 14.09375 -9.53125 L 38.546875 -9.53125 L 36.875 0 L 0.828125 0 L 10.84375 -57.625 L 22.4375 -57.625 Z M 14.09375 -9.53125 "/></g></g></g><g fill="#289db9" fill-opacity="1"><g transform="translate(382.726737, 101.062303)"><g><path d="M 47.8125 -19.234375 C 47.351562 -15.242188 45.988281 -11.710938 43.71875 -8.640625 C 41.457031 -5.566406 38.503906 -3.207031 34.859375 -1.5625 C 31.222656 0.0820312 27.296875 0.867188 23.078125 0.796875 C 19.273438 0.710938 15.960938 -0.164062 13.140625 -1.84375 C 10.316406 -3.519531 8.09375 -5.945312 6.46875 -9.125 C 4.84375 -12.300781 3.925781 -15.960938 3.71875 -20.109375 C 3.53125 -23.347656 3.863281 -27.378906 4.71875 -32.203125 C 5.582031 -37.035156 7.113281 -41.320312 9.3125 -45.0625 C 11.519531 -48.8125 14.140625 -51.785156 17.171875 -53.984375 C 21.441406 -57.035156 26.320312 -58.507812 31.8125 -58.40625 C 37.78125 -58.300781 42.507812 -56.460938 46 -52.890625 C 49.5 -49.316406 51.421875 -44.347656 51.765625 -37.984375 L 40.203125 -38.03125 C 40.203125 -41.664062 39.476562 -44.328125 38.03125 -46.015625 C 36.582031 -47.710938 34.328125 -48.613281 31.265625 -48.71875 C 27.304688 -48.84375 24.050781 -47.425781 21.5 -44.46875 C 18.957031 -41.519531 17.253906 -37.210938 16.390625 -31.546875 C 15.535156 -26.023438 15.164062 -21.894531 15.28125 -19.15625 C 15.40625 -15.675781 16.179688 -13.109375 17.609375 -11.453125 C 19.035156 -9.804688 21.023438 -8.941406 23.578125 -8.859375 C 27.117188 -8.734375 29.953125 -9.570312 32.078125 -11.375 C 34.203125 -13.1875 35.601562 -15.78125 36.28125 -19.15625 Z M 47.8125 -19.234375 "/></g></g></g><g fill="#289db9" fill-opacity="1"><g transform="translate(82.73758, 122.271134)"><g><path d="M 0.140625 0 L 1.484375 -6.375 L 5.828125 -6.375 L 5.671875 -5.609375 L 2.25 -5.609375 L 1.828125 -3.671875 L 4.359375 -3.671875 L 4.1875 -2.90625 L 1.671875 -2.90625 L 1.21875 -0.765625 L 4.640625 -0.765625 L 4.484375 0 Z M 0.140625 0 "/></g></g></g><g fill="#289db9" fill-opacity="1"><g transform="translate(88.128198, 122.271134)"><g><path d="M 1.09375 0 L 0.40625 -4.734375 L 1.234375 -4.734375 L 1.6875 -1.046875 L 3.71875 -4.734375 L 4.65625 -4.734375 L 1.953125 0 Z M 1.09375 0 "/></g></g></g><g fill="#289db9" fill-opacity="1"><g transform="translate(92.364364, 122.271134)"><g><path d="M 2.265625 0.109375 C 1.648438 0.109375 1.160156 -0.0664062 0.796875 -0.421875 C 0.429688 -0.785156 0.25 -1.28125 0.25 -1.90625 C 0.25 -2.457031 0.359375 -2.953125 0.578125 -3.390625 C 0.804688 -3.828125 1.117188 -4.171875 1.515625 -4.421875 C 1.921875 -4.679688 2.398438 -4.8125 2.953125 -4.8125 C 3.378906 -4.8125 3.734375 -4.722656 4.015625 -4.546875 C 4.296875 -4.378906 4.503906 -4.144531 4.640625 -3.84375 C 4.785156 -3.550781 4.859375 -3.222656 4.859375 -2.859375 C 4.859375 -2.628906 4.828125 -2.390625 4.765625 -2.140625 L 1.109375 -2.140625 C 1.097656 -2.097656 1.09375 -2.054688 1.09375 -2.015625 C 1.09375 -1.972656 1.09375 -1.925781 1.09375 -1.875 C 1.09375 -1.550781 1.15625 -1.296875 1.28125 -1.109375 C 1.40625 -0.921875 1.566406 -0.785156 1.765625 -0.703125 C 1.960938 -0.628906 2.164062 -0.59375 2.375 -0.59375 C 2.632812 -0.59375 2.859375 -0.632812 3.046875 -0.71875 C 3.242188 -0.800781 3.410156 -0.914062 3.546875 -1.0625 L 4.28125 -0.828125 C 4.070312 -0.546875 3.796875 -0.316406 3.453125 -0.140625 C 3.117188 0.0234375 2.722656 0.109375 2.265625 0.109375 Z M 1.21875 -2.796875 L 4.015625 -2.796875 C 4.023438 -2.828125 4.03125 -2.851562 4.03125 -2.875 C 4.03125 -2.90625 4.03125 -2.929688 4.03125 -2.953125 C 4.03125 -3.148438 3.988281 -3.335938 3.90625 -3.515625 C 3.832031 -3.691406 3.707031 -3.835938 3.53125 -3.953125 C 3.351562 -4.066406 3.117188 -4.125 2.828125 -4.125 C 2.597656 -4.125 2.367188 -4.070312 2.140625 -3.96875 C 1.921875 -3.863281 1.726562 -3.710938 1.5625 -3.515625 C 1.394531 -3.328125 1.28125 -3.085938 1.21875 -2.796875 Z M 1.21875 -2.796875 "/></g></g></g><g fill="#289db9" fill-opacity="1"><g transform="translate(97.535544, 122.271134)"><g><path d="M 0.078125 0 L 1.078125 -4.734375 L 1.6875 -4.734375 L 1.75 -3.84375 C 1.945312 -4.125 2.175781 -4.351562 2.4375 -4.53125 C 2.707031 -4.71875 3.078125 -4.8125 3.546875 -4.8125 L 3.65625 -4.8125 L 3.46875 -3.96875 C 3.289062 -3.96875 3.128906 -3.957031 2.984375 -3.9375 C 2.492188 -3.851562 2.117188 -3.632812 1.859375 -3.28125 C 1.609375 -2.9375 1.425781 -2.492188 1.3125 -1.953125 L 0.890625 0 Z M 0.078125 0 "/></g></g></g><g fill="#289db9" fill-opacity="1"><g transform="translate(100.903488, 122.271134)"><g><path d="M 2.265625 0.109375 C 1.648438 0.109375 1.160156 -0.0664062 0.796875 -0.421875 C 0.429688 -0.785156 0.25 -1.28125 0.25 -1.90625 C 0.25 -2.457031 0.359375 -2.953125 0.578125 -3.390625 C 0.804688 -3.828125 1.117188 -4.171875 1.515625 -4.421875 C 1.921875 -4.679688 2.398438 -4.8125 2.953125 -4.8125 C 3.378906 -4.8125 3.734375 -4.722656 4.015625 -4.546875 C 4.296875 -4.378906 4.503906 -4.144531 4.640625 -3.84375 C 4.785156 -3.550781 4.859375 -3.222656 4.859375 -2.859375 C 4.859375 -2.628906 4.828125 -2.390625 4.765625 -2.140625 L 1.109375 -2.140625 C 1.097656 -2.097656 1.09375 -2.054688 1.09375 -2.015625 C 1.09375 -1.972656 1.09375 -1.925781 1.09375 -1.875 C 1.09375 -1.550781 1.15625 -1.296875 1.28125 -1.109375 C 1.40625 -0.921875 1.566406 -0.785156 1.765625 -0.703125 C 1.960938 -0.628906 2.164062 -0.59375 2.375 -0.59375 C 2.632812 -0.59375 2.859375 -0.632812 3.046875 -0.71875 C 3.242188 -0.800781 3.410156 -0.914062 3.546875 -1.0625 L 4.28125 -0.828125 C 4.070312 -0.546875 3.796875 -0.316406 3.453125 -0.140625 C 3.117188 0.0234375 2.722656 0.109375 2.265625 0.109375 Z M 1.21875 -2.796875 L 4.015625 -2.796875 C 4.023438 -2.828125 4.03125 -2.851562 4.03125 -2.875 C 4.03125 -2.90625 4.03125 -2.929688 4.03125 -2.953125 C 4.03125 -3.148438 3.988281 -3.335938 3.90625 -3.515625 C 3.832031 -3.691406 3.707031 -3.835938 3.53125 -3.953125 C 3.351562 -4.066406 3.117188 -4.125 2.828125 -4.125 C 2.597656 -4.125 2.367188 -4.070312 2.140625 -3.96875 C 1.921875 -3.863281 1.726562 -3.710938 1.5625 -3.515625 C 1.394531 -3.328125 1.28125 -3.085938 1.21875 -2.796875 Z M 1.21875 -2.796875 "/></g></g></g><g fill="#289db9" fill-opacity="1"><g transform="translate(106.074668, 122.271134)"><g><path d="M 2.03125 0.109375 C 1.550781 0.109375 1.148438 0.0195312 0.828125 -0.15625 C 0.503906 -0.34375 0.257812 -0.648438 0.09375 -1.078125 L 0.921875 -1.359375 C 0.972656 -1.078125 1.113281 -0.867188 1.34375 -0.734375 C 1.570312 -0.597656 1.8125 -0.53125 2.0625 -0.53125 C 2.320312 -0.53125 2.5625 -0.597656 2.78125 -0.734375 C 3 -0.867188 3.109375 -1.0625 3.109375 -1.3125 C 3.109375 -1.488281 3.039062 -1.625 2.90625 -1.71875 C 2.78125 -1.820312 2.617188 -1.90625 2.421875 -1.96875 C 2.222656 -2.03125 2.007812 -2.09375 1.78125 -2.15625 C 1.5625 -2.21875 1.347656 -2.296875 1.140625 -2.390625 C 0.941406 -2.492188 0.78125 -2.628906 0.65625 -2.796875 C 0.53125 -2.972656 0.46875 -3.203125 0.46875 -3.484375 C 0.46875 -3.785156 0.554688 -4.03125 0.734375 -4.21875 C 0.910156 -4.414062 1.132812 -4.5625 1.40625 -4.65625 C 1.6875 -4.757812 1.984375 -4.8125 2.296875 -4.8125 C 2.554688 -4.8125 2.804688 -4.773438 3.046875 -4.703125 C 3.296875 -4.628906 3.515625 -4.519531 3.703125 -4.375 C 3.898438 -4.226562 4.035156 -4.050781 4.109375 -3.84375 L 3.34375 -3.578125 C 3.28125 -3.765625 3.140625 -3.90625 2.921875 -4 C 2.703125 -4.101562 2.46875 -4.15625 2.21875 -4.15625 C 1.976562 -4.15625 1.757812 -4.101562 1.5625 -4 C 1.375 -3.894531 1.28125 -3.738281 1.28125 -3.53125 C 1.28125 -3.363281 1.34375 -3.226562 1.46875 -3.125 C 1.59375 -3.03125 1.753906 -2.945312 1.953125 -2.875 C 2.160156 -2.8125 2.378906 -2.75 2.609375 -2.6875 C 2.835938 -2.632812 3.050781 -2.554688 3.25 -2.453125 C 3.457031 -2.347656 3.625 -2.210938 3.75 -2.046875 C 3.875 -1.878906 3.9375 -1.648438 3.9375 -1.359375 C 3.9375 -1.035156 3.847656 -0.765625 3.671875 -0.546875 C 3.503906 -0.328125 3.273438 -0.160156 2.984375 -0.046875 C 2.703125 0.0546875 2.382812 0.109375 2.03125 0.109375 Z M 2.03125 0.109375 "/></g></g></g><g fill="#289db9" fill-opacity="1"><g transform="translate(110.64477, 122.271134)"><g><path d="M 1.53125 0 C 1.15625 0 0.898438 -0.0507812 0.765625 -0.15625 C 0.628906 -0.257812 0.5625 -0.421875 0.5625 -0.640625 C 0.5625 -0.773438 0.59375 -0.988281 0.65625 -1.28125 L 1.265625 -4.09375 L 0.46875 -4.09375 L 0.59375 -4.734375 L 1.390625 -4.734375 L 1.65625 -5.921875 L 2.46875 -5.921875 L 2.21875 -4.734375 L 3.125 -4.734375 L 2.984375 -4.09375 L 2.078125 -4.09375 L 1.53125 -1.515625 C 1.5 -1.398438 1.472656 -1.296875 1.453125 -1.203125 C 1.441406 -1.109375 1.4375 -1.039062 1.4375 -1 C 1.4375 -0.894531 1.460938 -0.820312 1.515625 -0.78125 C 1.578125 -0.738281 1.691406 -0.71875 1.859375 -0.71875 L 2.265625 -0.71875 L 2.125 0 Z M 1.53125 0 "/></g></g></g><g fill="#289db9" fill-opacity="1"><g transform="translate(113.73603, 122.271134)"><g/></g></g><g fill="#289db9" fill-opacity="1"><g transform="translate(116.407489, 122.271134)"><g><path d="M 2.03125 0.109375 C 1.550781 0.109375 1.148438 0.0195312 0.828125 -0.15625 C 0.503906 -0.34375 0.257812 -0.648438 0.09375 -1.078125 L 0.921875 -1.359375 C 0.972656 -1.078125 1.113281 -0.867188 1.34375 -0.734375 C 1.570312 -0.597656 1.8125 -0.53125 2.0625 -0.53125 C 2.320312 -0.53125 2.5625 -0.597656 2.78125 -0.734375 C 3 -0.867188 3.109375 -1.0625 3.109375 -1.3125 C 3.109375 -1.488281 3.039062 -1.625 2.90625 -1.71875 C 2.78125 -1.820312 2.617188 -1.90625 2.421875 -1.96875 C 2.222656 -2.03125 2.007812 -2.09375 1.78125 -2.15625 C 1.5625 -2.21875 1.347656 -2.296875 1.140625 -2.390625 C 0.941406 -2.492188 0.78125 -2.628906 0.65625 -2.796875 C 0.53125 -2.972656 0.46875 -3.203125 0.46875 -3.484375 C 0.46875 -3.785156 0.554688 -4.03125 0.734375 -4.21875 C 0.910156 -4.414062 1.132812 -4.5625 1.40625 -4.65625 C 1.6875 -4.757812 1.984375 -4.8125 2.296875 -4.8125 C 2.554688 -4.8125 2.804688 -4.773438 3.046875 -4.703125 C 3.296875 -4.628906 3.515625 -4.519531 3.703125 -4.375 C 3.898438 -4.226562 4.035156 -4.050781 4.109375 -3.84375 L 3.34375 -3.578125 C 3.28125 -3.765625 3.140625 -3.90625 2.921875 -4 C 2.703125 -4.101562 2.46875 -4.15625 2.21875 -4.15625 C 1.976562 -4.15625 1.757812 -4.101562 1.5625 -4 C 1.375 -3.894531 1.28125 -3.738281 1.28125 -3.53125 C 1.28125 -3.363281 1.34375 -3.226562 1.46875 -3.125 C 1.59375 -3.03125 1.753906 -2.945312 1.953125 -2.875 C 2.160156 -2.8125 2.378906 -2.75 2.609375 -2.6875 C 2.835938 -2.632812 3.050781 -2.554688 3.25 -2.453125 C 3.457031 -2.347656 3.625 -2.210938 3.75 -2.046875 C 3.875 -1.878906 3.9375 -1.648438 3.9375 -1.359375 C 3.9375 -1.035156 3.847656 -0.765625 3.671875 -0.546875 C 3.503906 -0.328125 3.273438 -0.160156 2.984375 -0.046875 C 2.703125 0.0546875 2.382812 0.109375 2.03125 0.109375 Z M 2.03125 0.109375 "/></g></g></g><g fill="#289db9" fill-opacity="1"><g transform="translate(120.977591, 122.271134)"><g><path d="M 2.203125 0.109375 C 1.554688 0.109375 1.066406 -0.078125 0.734375 -0.453125 C 0.410156 -0.828125 0.25 -1.3125 0.25 -1.90625 C 0.25 -2.457031 0.359375 -2.953125 0.578125 -3.390625 C 0.804688 -3.828125 1.117188 -4.171875 1.515625 -4.421875 C 1.921875 -4.679688 2.378906 -4.8125 2.890625 -4.8125 C 3.210938 -4.8125 3.519531 -4.738281 3.8125 -4.59375 C 4.101562 -4.457031 4.335938 -4.242188 4.515625 -3.953125 C 4.703125 -3.660156 4.796875 -3.289062 4.796875 -2.84375 C 4.796875 -2.445312 4.726562 -2.066406 4.59375 -1.703125 C 4.46875 -1.347656 4.289062 -1.035156 4.0625 -0.765625 C 3.832031 -0.492188 3.554688 -0.28125 3.234375 -0.125 C 2.921875 0.03125 2.578125 0.109375 2.203125 0.109375 Z M 2.265625 -0.59375 C 2.628906 -0.59375 2.9375 -0.703125 3.1875 -0.921875 C 3.4375 -1.148438 3.625 -1.4375 3.75 -1.78125 C 3.875 -2.125 3.9375 -2.488281 3.9375 -2.875 C 3.9375 -3.34375 3.820312 -3.664062 3.59375 -3.84375 C 3.375 -4.019531 3.097656 -4.109375 2.765625 -4.109375 C 2.390625 -4.109375 2.078125 -4 1.828125 -3.78125 C 1.578125 -3.5625 1.390625 -3.28125 1.265625 -2.9375 C 1.148438 -2.601562 1.09375 -2.253906 1.09375 -1.890625 C 1.09375 -1.503906 1.191406 -1.191406 1.390625 -0.953125 C 1.585938 -0.710938 1.878906 -0.59375 2.265625 -0.59375 Z M 2.265625 -0.59375 "/></g></g></g><g fill="#289db9" fill-opacity="1"><g transform="translate(126.196471, 122.271134)"><g><path d="M 0.359375 0 L 1.21875 -4.09375 L 0.421875 -4.09375 L 0.5625 -4.734375 L 1.359375 -4.734375 L 1.46875 -5.234375 C 1.539062 -5.566406 1.617188 -5.828125 1.703125 -6.015625 C 1.785156 -6.210938 1.882812 -6.363281 2 -6.46875 C 2.113281 -6.570312 2.253906 -6.640625 2.421875 -6.671875 C 2.597656 -6.710938 2.816406 -6.734375 3.078125 -6.734375 L 3.578125 -6.734375 L 3.421875 -6.0625 L 3.203125 -6.0625 C 3.046875 -6.0625 2.910156 -6.046875 2.796875 -6.015625 C 2.679688 -5.992188 2.582031 -5.9375 2.5 -5.84375 C 2.425781 -5.75 2.363281 -5.59375 2.3125 -5.375 L 2.171875 -4.734375 L 3.15625 -4.734375 L 3 -4.09375 L 2.046875 -4.09375 L 1.171875 0 Z M 0.359375 0 "/></g></g></g><g fill="#289db9" fill-opacity="1"><g transform="translate(129.249566, 122.271134)"><g><path d="M 1.53125 0 C 1.15625 0 0.898438 -0.0507812 0.765625 -0.15625 C 0.628906 -0.257812 0.5625 -0.421875 0.5625 -0.640625 C 0.5625 -0.773438 0.59375 -0.988281 0.65625 -1.28125 L 1.265625 -4.09375 L 0.46875 -4.09375 L 0.59375 -4.734375 L 1.390625 -4.734375 L 1.65625 -5.921875 L 2.46875 -5.921875 L 2.21875 -4.734375 L 3.125 -4.734375 L 2.984375 -4.09375 L 2.078125 -4.09375 L 1.53125 -1.515625 C 1.5 -1.398438 1.472656 -1.296875 1.453125 -1.203125 C 1.441406 -1.109375 1.4375 -1.039062 1.4375 -1 C 1.4375 -0.894531 1.460938 -0.820312 1.515625 -0.78125 C 1.578125 -0.738281 1.691406 -0.71875 1.859375 -0.71875 L 2.265625 -0.71875 L 2.125 0 Z M 1.53125 0 "/></g></g></g><g fill="#289db9" fill-opacity="1"><g transform="translate(132.340826, 122.271134)"><g><path d="M 0.765625 0 L 0.40625 -4.734375 L 1.234375 -4.734375 L 1.40625 -1.3125 L 3.046875 -4.734375 L 3.90625 -4.734375 L 4.09375 -1.234375 L 5.78125 -4.734375 L 6.6875 -4.734375 L 4.3125 0 L 3.53125 0 L 3.3125 -3.8125 L 1.46875 0 Z M 0.765625 0 "/></g></g></g><g fill="#289db9" fill-opacity="1"><g transform="translate(138.618752, 122.271134)"><g><path d="M 1.46875 0.109375 C 1.0625 0.109375 0.722656 0 0.453125 -0.21875 C 0.179688 -0.4375 0.046875 -0.734375 0.046875 -1.109375 C 0.046875 -1.429688 0.128906 -1.695312 0.296875 -1.90625 C 0.460938 -2.113281 0.679688 -2.28125 0.953125 -2.40625 C 1.222656 -2.539062 1.515625 -2.640625 1.828125 -2.703125 C 2.148438 -2.773438 2.457031 -2.828125 2.75 -2.859375 C 3.050781 -2.890625 3.3125 -2.914062 3.53125 -2.9375 C 3.550781 -3.03125 3.566406 -3.113281 3.578125 -3.1875 C 3.585938 -3.257812 3.59375 -3.332031 3.59375 -3.40625 C 3.59375 -3.90625 3.300781 -4.15625 2.71875 -4.15625 C 2.425781 -4.15625 2.175781 -4.085938 1.96875 -3.953125 C 1.769531 -3.828125 1.617188 -3.648438 1.515625 -3.421875 L 0.796875 -3.640625 C 0.960938 -4.003906 1.203125 -4.289062 1.515625 -4.5 C 1.835938 -4.707031 2.226562 -4.8125 2.6875 -4.8125 C 3.238281 -4.8125 3.660156 -4.695312 3.953125 -4.46875 C 4.253906 -4.25 4.40625 -3.910156 4.40625 -3.453125 C 4.40625 -3.335938 4.394531 -3.222656 4.375 -3.109375 C 4.363281 -3.003906 4.335938 -2.851562 4.296875 -2.65625 C 4.253906 -2.46875 4.191406 -2.179688 4.109375 -1.796875 C 4.023438 -1.398438 3.96875 -1.054688 3.9375 -0.765625 C 3.914062 -0.472656 3.898438 -0.21875 3.890625 0 L 3.140625 0 L 3.109375 -0.59375 C 2.890625 -0.363281 2.65625 -0.1875 2.40625 -0.0625 C 2.15625 0.0507812 1.84375 0.109375 1.46875 0.109375 Z M 1.734375 -0.546875 C 2.160156 -0.546875 2.523438 -0.6875 2.828125 -0.96875 C 3.140625 -1.257812 3.335938 -1.648438 3.421875 -2.140625 L 3.453125 -2.296875 C 2.921875 -2.242188 2.46875 -2.1875 2.09375 -2.125 C 1.71875 -2.0625 1.429688 -1.957031 1.234375 -1.8125 C 1.035156 -1.675781 0.9375 -1.46875 0.9375 -1.1875 C 0.9375 -0.976562 1.015625 -0.816406 1.171875 -0.703125 C 1.328125 -0.597656 1.515625 -0.546875 1.734375 -0.546875 Z M 1.734375 -0.546875 "/></g></g></g><g fill="#289db9" fill-opacity="1"><g transform="translate(143.589569, 122.271134)"><g><path d="M 0.078125 0 L 1.078125 -4.734375 L 1.6875 -4.734375 L 1.75 -3.84375 C 1.945312 -4.125 2.175781 -4.351562 2.4375 -4.53125 C 2.707031 -4.71875 3.078125 -4.8125 3.546875 -4.8125 L 3.65625 -4.8125 L 3.46875 -3.96875 C 3.289062 -3.96875 3.128906 -3.957031 2.984375 -3.9375 C 2.492188 -3.851562 2.117188 -3.632812 1.859375 -3.28125 C 1.609375 -2.9375 1.425781 -2.492188 1.3125 -1.953125 L 0.890625 0 Z M 0.078125 0 "/></g></g></g><g fill="#289db9" fill-opacity="1"><g transform="translate(146.957513, 122.271134)"><g><path d="M 2.265625 0.109375 C 1.648438 0.109375 1.160156 -0.0664062 0.796875 -0.421875 C 0.429688 -0.785156 0.25 -1.28125 0.25 -1.90625 C 0.25 -2.457031 0.359375 -2.953125 0.578125 -3.390625 C 0.804688 -3.828125 1.117188 -4.171875 1.515625 -4.421875 C 1.921875 -4.679688 2.398438 -4.8125 2.953125 -4.8125 C 3.378906 -4.8125 3.734375 -4.722656 4.015625 -4.546875 C 4.296875 -4.378906 4.503906 -4.144531 4.640625 -3.84375 C 4.785156 -3.550781 4.859375 -3.222656 4.859375 -2.859375 C 4.859375 -2.628906 4.828125 -2.390625 4.765625 -2.140625 L 1.109375 -2.140625 C 1.097656 -2.097656 1.09375 -2.054688 1.09375 -2.015625 C 1.09375 -1.972656 1.09375 -1.925781 1.09375 -1.875 C 1.09375 -1.550781 1.15625 -1.296875 1.28125 -1.109375 C 1.40625 -0.921875 1.566406 -0.785156 1.765625 -0.703125 C 1.960938 -0.628906 2.164062 -0.59375 2.375 -0.59375 C 2.632812 -0.59375 2.859375 -0.632812 3.046875 -0.71875 C 3.242188 -0.800781 3.410156 -0.914062 3.546875 -1.0625 L 4.28125 -0.828125 C 4.070312 -0.546875 3.796875 -0.316406 3.453125 -0.140625 C 3.117188 0.0234375 2.722656 0.109375 2.265625 0.109375 Z M 1.21875 -2.796875 L 4.015625 -2.796875 C 4.023438 -2.828125 4.03125 -2.851562 4.03125 -2.875 C 4.03125 -2.90625 4.03125 -2.929688 4.03125 -2.953125 C 4.03125 -3.148438 3.988281 -3.335938 3.90625 -3.515625 C 3.832031 -3.691406 3.707031 -3.835938 3.53125 -3.953125 C 3.351562 -4.066406 3.117188 -4.125 2.828125 -4.125 C 2.597656 -4.125 2.367188 -4.070312 2.140625 -3.96875 C 1.921875 -3.863281 1.726562 -3.710938 1.5625 -3.515625 C 1.394531 -3.328125 1.28125 -3.085938 1.21875 -2.796875 Z M 1.21875 -2.796875 "/></g></g></g><g fill="#289db9" fill-opacity="1"><g transform="translate(152.128693, 122.271134)"><g><path d="M 2.03125 0.109375 C 1.550781 0.109375 1.148438 0.0195312 0.828125 -0.15625 C 0.503906 -0.34375 0.257812 -0.648438 0.09375 -1.078125 L 0.921875 -1.359375 C 0.972656 -1.078125 1.113281 -0.867188 1.34375 -0.734375 C 1.570312 -0.597656 1.8125 -0.53125 2.0625 -0.53125 C 2.320312 -0.53125 2.5625 -0.597656 2.78125 -0.734375 C 3 -0.867188 3.109375 -1.0625 3.109375 -1.3125 C 3.109375 -1.488281 3.039062 -1.625 2.90625 -1.71875 C 2.78125 -1.820312 2.617188 -1.90625 2.421875 -1.96875 C 2.222656 -2.03125 2.007812 -2.09375 1.78125 -2.15625 C 1.5625 -2.21875 1.347656 -2.296875 1.140625 -2.390625 C 0.941406 -2.492188 0.78125 -2.628906 0.65625 -2.796875 C 0.53125 -2.972656 0.46875 -3.203125 0.46875 -3.484375 C 0.46875 -3.785156 0.554688 -4.03125 0.734375 -4.21875 C 0.910156 -4.414062 1.132812 -4.5625 1.40625 -4.65625 C 1.6875 -4.757812 1.984375 -4.8125 2.296875 -4.8125 C 2.554688 -4.8125 2.804688 -4.773438 3.046875 -4.703125 C 3.296875 -4.628906 3.515625 -4.519531 3.703125 -4.375 C 3.898438 -4.226562 4.035156 -4.050781 4.109375 -3.84375 L 3.34375 -3.578125 C 3.28125 -3.765625 3.140625 -3.90625 2.921875 -4 C 2.703125 -4.101562 2.46875 -4.15625 2.21875 -4.15625 C 1.976562 -4.15625 1.757812 -4.101562 1.5625 -4 C 1.375 -3.894531 1.28125 -3.738281 1.28125 -3.53125 C 1.28125 -3.363281 1.34375 -3.226562 1.46875 -3.125 C 1.59375 -3.03125 1.753906 -2.945312 1.953125 -2.875 C 2.160156 -2.8125 2.378906 -2.75 2.609375 -2.6875 C 2.835938 -2.632812 3.050781 -2.554688 3.25 -2.453125 C 3.457031 -2.347656 3.625 -2.210938 3.75 -2.046875 C 3.875 -1.878906 3.9375 -1.648438 3.9375 -1.359375 C 3.9375 -1.035156 3.847656 -0.765625 3.671875 -0.546875 C 3.503906 -0.328125 3.273438 -0.160156 2.984375 -0.046875 C 2.703125 0.0546875 2.382812 0.109375 2.03125 0.109375 Z M 2.03125 0.109375 "/></g></g></g></svg>